<svg width="100" height="27" viewBox="0 0 100 27" fill="none" xmlns="http://www.w3.org/2000/svg">
<g clip-path="url(#clip0_2_68)">
<path d="M0.0921021 26.7035V0H8.10315L14.733 8.10313L20.8103 0H29.558V26.7035H22.8361V8.10313L14.733 17.9558L6.35361 8.10313V26.7035H0.0921021Z" fill="#D9D9D9"/>
<path d="M6.35359 15.3776L3.68324 12.7993L0.092081 16.3905V26.7036H6.35359V15.3776Z" fill="#A5B6BE"/>
<path d="M3.86739 21.4551L0.184143 26.7037H6.35357L3.86739 21.4551Z" fill="#5F7180"/>
<path d="M26.0589 12.6152L22.8361 16.0222V26.7036H29.558V16.0222L26.0589 12.6152Z" fill="#A5B6BE"/>
<path d="M25.9669 20.3501C24.9847 22.3759 23.0203 26.4827 23.0203 26.7037H29.558L25.9669 20.3501Z" fill="#5F7180"/>
<path d="M24.8618 5.70898L14.6408 18.0478L9.39222 11.6943L4.32776 5.70898L14.6408 14.7329L24.8618 5.70898Z" fill="#A5B6BE"/>
<path fill-rule="evenodd" clip-rule="evenodd" d="M34.2542 26.7035L44.291 0H56.6298L66.7588 26.7035H59.4844L57.5507 21.4908H43.0939L41.2523 26.7035H34.2542ZM45.396 15.8208H55.4328L51.7495 4.93823H48.803L45.396 15.8208Z" fill="#D9D9D9"/>
<path d="M34.2542 26.7038L38.4352 15.5469H45.4811L43.5543 21.1253L41.5286 26.7038H34.2542Z" fill="#82939F"/>
<path d="M66.7587 26.7034H59.4843L57.5506 21.4907H45.8563L50 15.8208H62.6323L66.7587 26.7034Z" fill="#82939F"/>
<path d="M45.8563 21.4907H43.4208L45.3959 15.8208H50L45.8563 21.4907Z" fill="#364859"/>
<path d="M81.2154 12.7072L71.5469 0H79.6501L85.9116 7.91897L92.081 0H100L90.5156 12.7072L100 26.7035H92.081L85.9116 17.7716L79.6501 26.7035H71.5469L81.2154 12.7072Z" fill="#D9D9D9"/>
<path d="M71.547 26.7035L79.3739 15.3775H83.2413L75.4144 5.06445L76.1511 5.43278L85.8196 15.0092L94.3831 5.8011L95.9485 5.43278L88.4899 15.3775H92.3245L100 26.7035H92.0811L85.9116 17.7716L79.6501 26.7035H71.547Z" fill="#A5B6BE"/>
<path d="M79.6501 26.7035H74.1252L84.8066 16.7588L85.9116 17.7717L79.6501 26.7035Z" fill="#5F7180"/>
<path d="M92.0811 26.7038L85.9116 17.7719L86.2799 17.3115V16.9432L86.4641 16.5749L86.1879 16.0224H86.5562L86.4641 15.1016L87.477 16.2065L87.8453 16.0224L97.6059 26.7038H92.0811Z" fill="#5F7180"/>
</g>
<defs>
<clipPath id="clip0_2_68">
<rect width="100" height="26.7035" fill="white"/>
</clipPath>
</defs>
</svg>
