<svg width="300" height="104" viewBox="0 0 300 104" fill="none" xmlns="http://www.w3.org/2000/svg">
<path d="M0.276123 80.1105V0H24.3093L44.1988 24.3094L62.4308 0H88.6739V80.1105H68.5082V24.3094L44.1988 53.8674L19.0607 24.3094V80.1105H0.276123Z" fill="#D9D9D9"/>
<path d="M19.0608 46.1328L11.0497 38.3979L0.276243 49.1714V80.1107H19.0608V46.1328Z" fill="#A5B6BE"/>
<path d="M11.602 64.3647L0.552246 80.1106H19.0605L11.602 64.3647Z" fill="#5F7180"/>
<path d="M78.1768 37.8452L68.5083 48.0662V80.1104H88.674V48.0662L78.1768 37.8452Z" fill="#A5B6BE"/>
<path d="M77.9006 61.0498C74.954 67.1272 69.0608 79.4476 69.0608 80.1106H88.674L77.9006 61.0498Z" fill="#5F7180"/>
<path d="M74.5856 17.127L43.9226 54.1435L28.1768 35.0828L12.9834 17.127L43.9226 44.1988L74.5856 17.127Z" fill="#A5B6BE"/>
<path fill-rule="evenodd" clip-rule="evenodd" d="M102.762 80.1105L132.873 0H169.89L200.276 80.1105H178.453L172.652 64.4725H129.282L123.757 80.1105H102.762ZM136.188 47.4627H166.298L155.249 14.8149H146.409L136.188 47.4627Z" fill="#D9D9D9"/>
<path d="M102.762 80.1105L115.305 46.6396H136.443L130.663 63.3751L124.586 80.1105H102.762Z" fill="#82939F"/>
<path d="M200.276 80.1107H178.453L172.652 64.4727H137.569L150 47.4629H187.897L200.276 80.1107Z" fill="#82939F"/>
<path d="M137.569 64.4727H130.263L136.188 47.4629H150L137.569 64.4727Z" fill="#364859"/>
<path d="M243.647 38.1216L214.641 0H238.95L257.735 23.7569L276.243 0H300L271.547 38.1216L300 80.1105H276.243L257.735 53.3149L238.95 80.1105H214.641L243.647 38.1216Z" fill="#D9D9D9"/>
<path d="M214.641 80.1105L238.122 46.1326H249.724L226.243 15.1934L228.453 16.2983L257.459 45.0276L283.149 17.4033L287.846 16.2983L265.47 46.1326H276.974L300 80.1105H276.243L257.735 53.3149L238.951 80.1105H214.641Z" fill="#A5B6BE"/>
<path d="M238.95 80.1106H222.376L254.42 50.2764L257.735 53.315L238.95 80.1106Z" fill="#5F7180"/>
<path d="M276.243 80.1103L257.735 53.3148L258.84 51.9335V50.8286L259.392 49.7236L258.564 48.0661H259.669L259.392 45.3037L262.431 48.6186L263.536 48.0661L292.818 80.1103H276.243Z" fill="#5F7180"/>
<path d="M8.05176 101V91.2246H9.93164L13.2471 98.6416L16.4941 91.2246H18.3057V101H16.6309V94.1914L13.9785 101H12.4336L9.72656 94.1914V101H8.05176ZM21.3613 101H19.502L23.6514 91.2246H25.5996L29.8379 101H27.8896L26.7754 98.334H23.5283L24.1504 96.7617H26.1191L24.5811 93.0908L21.3613 101ZM31.0342 101V91.2246H32.8457L38.0068 98.3477V91.2246H39.75V101H37.9385L32.7773 93.7266V101H31.0342ZM42.8125 101H40.9531L45.1025 91.2246H47.0508L51.2891 101H49.3408L48.2266 98.334H44.9795L45.6016 96.7617H47.5703L46.0322 93.0908L42.8125 101ZM60.2783 100.549C59.4899 100.895 58.5033 101.068 57.3184 101.068C53.8685 101.068 52.1436 99.3708 52.1436 95.9756C52.1436 92.7627 53.8981 91.1562 57.4072 91.1562C58.4782 91.1562 59.4352 91.3158 60.2783 91.6348V93.2754C59.4352 92.9108 58.5238 92.7285 57.5439 92.7285C55.1969 92.7285 54.0234 93.8109 54.0234 95.9756C54.0234 98.3226 55.1309 99.4961 57.3457 99.4961C57.6738 99.4961 58.0475 99.4414 58.4668 99.332V96.4883H60.2783V100.549ZM68.6797 91.2246V92.7832H63.7852V95.2441H68.4473V96.8643H63.7646V99.4277H68.7754V101H61.9873V91.2246H68.6797ZM70.4502 101V91.2246H72.3301L75.6455 98.6416L78.8926 91.2246H80.7041V101H79.0293V94.1914L76.377 101H74.832L72.125 94.1914V101H70.4502ZM89.4473 91.2246V92.7832H84.5527V95.2441H89.2148V96.8643H84.5322V99.4277H89.543V101H82.7549V91.2246H89.4473ZM91.2178 101V91.2246H93.0293L98.1904 98.3477V91.2246H99.9336V101H98.1221L92.9609 93.7266V101H91.2178ZM108.383 91.2246V92.7969H105.58V101H103.769V92.7969H100.966V91.2246H108.383ZM113.496 101H111.637L115.786 91.2246H117.734L121.973 101H120.024L118.91 98.334H115.663L116.285 96.7617H118.254L116.716 93.0908L113.496 101ZM123.169 101V91.2246H124.98L130.142 98.3477V91.2246H131.885V101H130.073L124.912 93.7266V101H123.169ZM137.771 99.4277C139.799 99.4277 140.812 98.2337 140.812 95.8457C140.812 93.8132 139.799 92.7969 137.771 92.7969H135.754V99.4277H137.771ZM133.942 101V91.2246H137.771C141.006 91.2246 142.624 92.765 142.624 95.8457C142.624 99.2819 141.006 101 137.771 101H133.942ZM148.25 101H146.391L150.54 91.2246H152.488L156.727 101H154.778L153.664 98.334H150.417L151.039 96.7617H153.008L151.47 93.0908L148.25 101ZM165.716 100.59C164.873 100.909 163.916 101.068 162.845 101.068C159.336 101.068 157.581 99.3708 157.581 95.9756C157.581 92.7627 159.336 91.1562 162.845 91.1562C163.916 91.1562 164.873 91.3158 165.716 91.6348V93.2754C164.873 92.9108 163.961 92.7285 162.981 92.7285C160.634 92.7285 159.461 93.8109 159.461 95.9756C159.461 98.3226 160.634 99.4961 162.981 99.4961C163.961 99.4961 164.873 99.3138 165.716 98.9492V100.59ZM168.963 96.085C168.963 98.359 169.972 99.4961 171.991 99.4961C173.96 99.4961 174.944 98.359 174.944 96.085C174.944 93.8473 173.96 92.7285 171.991 92.7285C169.972 92.7285 168.963 93.8473 168.963 96.085ZM167.083 96.126C167.083 92.8128 168.719 91.1562 171.991 91.1562C175.213 91.1562 176.824 92.8128 176.824 96.126C176.824 98.8512 175.81 100.46 173.782 100.952L175.368 102.798L173.939 103.885L171.718 101.068C168.774 101.068 167.229 99.4209 167.083 96.126ZM178.54 97.1582V91.2246H180.352V97.1582C180.352 98.7168 181.149 99.4961 182.744 99.4961C184.339 99.4961 185.137 98.7168 185.137 97.1582V91.2246H186.948V97.1582C186.948 99.765 185.547 101.068 182.744 101.068C179.941 101.068 178.54 99.765 178.54 97.1582ZM190.811 91.2246V101H188.999V91.2246H190.811ZM192.697 100.59V98.9492C193.677 99.3138 194.785 99.4961 196.02 99.4961C197.519 99.4961 198.269 98.9948 198.269 97.9922C198.269 97.263 197.808 96.8984 196.888 96.8984H195.356C193.356 96.8984 192.355 95.987 192.355 94.1641C192.355 92.1589 193.78 91.1562 196.628 91.1562C197.722 91.1562 198.758 91.3158 199.738 91.6348V93.2754C198.758 92.9108 197.722 92.7285 196.628 92.7285C194.987 92.7285 194.167 93.207 194.167 94.1641C194.167 94.8932 194.563 95.2578 195.356 95.2578H196.888C199.016 95.2578 200.08 96.1693 200.08 97.9922C200.08 100.043 198.727 101.068 196.02 101.068C194.785 101.068 193.677 100.909 192.697 100.59ZM203.43 91.2246V101H201.618V91.2246H203.43ZM211.879 91.2246V92.7969H209.076V101H207.265V92.7969H204.462V91.2246H211.879ZM214.723 91.2246V101H212.911V91.2246H214.723ZM218.318 96.085C218.318 98.359 219.328 99.4961 221.347 99.4961C223.315 99.4961 224.3 98.359 224.3 96.085C224.3 93.8473 223.315 92.7285 221.347 92.7285C219.328 92.7285 218.318 93.8473 218.318 96.085ZM216.438 96.126C216.438 92.8128 218.075 91.1562 221.347 91.1562C224.569 91.1562 226.18 92.8128 226.18 96.126C226.18 99.4209 224.569 101.068 221.347 101.068C218.22 101.068 216.584 99.4209 216.438 96.126ZM227.896 101V91.2246H229.707L234.868 98.3477V91.2246H236.611V101H234.8L229.639 93.7266V101H227.896ZM248.438 91.2246V92.7832H243.543V95.2441H248.205V96.8643H243.522V99.4277H248.533V101H241.745V91.2246H248.438ZM253.202 96.1123L249.354 91.2246H251.644L254.344 94.793L257.044 91.2246H259.334L255.492 96.1123L259.334 101H257.044L254.344 97.4316L251.644 101H249.354L253.202 96.1123ZM260.476 101V91.2246H264.851C266.847 91.2246 267.845 92.1429 267.845 93.9795C267.845 95.971 266.48 97.1764 263.75 97.5957L263.49 95.9824C265.131 95.6862 265.951 95.0368 265.951 94.0342C265.951 93.223 265.546 92.8174 264.734 92.8174H262.287V101H260.476ZM275.74 91.2246V92.7832H270.846V95.2441H275.508V96.8643H270.825V99.4277H275.836V101H269.048V91.2246H275.74ZM277.511 100.986V91.2246H281.954C283.95 91.2246 284.948 92.0973 284.948 93.8428C284.948 95.0231 284.171 96.0007 282.617 96.7754L285.714 101H283.431L280.457 96.7412V95.9141C282.189 95.6178 283.055 94.9456 283.055 93.8975C283.055 93.1774 282.649 92.8174 281.838 92.8174H279.356V100.986H277.511ZM292.967 91.2246V92.7969H290.164V101H288.353V92.7969H285.55V91.2246H292.967Z" fill="white"/>
</svg>
